# xmcd
#
# Track frame offsets:
#	150
#	13194
#	27007
#	41652
#	55439
#	70154
#	82678
#	99100
#	112229
#	128053
#	140422
#	158505
#	172910
#	185279
#	196926
#	210311
#	236384
#	253324
#
# Disc length: 3581 seconds
#
# Revision: 0
# Processed by: cddbd v1.5.2PL0 Copyright (c) Steve Scherf et al.
# Submitted via: EasyCDDAExtractor 16.0.6.1
#
DISCID=e40dfb12
DTITLE=Κανά Μελίνα - Τζουκ μποξ-Μ. Κανά
DYEAR=2004
DGENRE=Λαϊκή
TTITLE0=Αγάπη μου επικίνδυνη [Δημ. Γκούτης-Αντ. Ρεπάνης]
TTITLE1=Αγόρι μου [Τ. Βοσκόπουλος-Μ. Θειόπουλος]
TTITLE2=Στο σπίτι μου χαράματα [Γιώργος Κοινούσης]
TTITLE3=Το καινούργιο μου φεγγάρι [Μ. Πλέσσας-Ά. Δασκαλόπουλος]
TTITLE4=Εγώ ποτέ δεν αγαπώ [Α. Καλδάρας-Κ. Βίρβος]
TTITLE5=Ένα τραγούδι πες μου ακόμα [Τάκης Μουσαφίρης]
TTITLE6=Για κοίτα κόσμε [Βασίλης Τσιτσάνης]
TTITLE7=Δώσε μου φωτιά [Γ. Μανισαλής-Κ. Ψυχογιός]
TTITLE8=Σώσε με [Νίκος Καρβέλας]
TTITLE9=Πρέπει [Άκης Πάνου]
TTITLE10=Τι Μαΐστρος, τι Βαρδάρης [Άκης Πάνου]
TTITLE11=Σταμάτησε του ρολογιού τους δείκτες [Μ. Πλέσσας-Λ. Παπαδόπουλος]
TTITLE12=Ναύτης βγήκε στη στεριά [Γ. Σπανός-Μ. Ελευθερίου]
TTITLE13=Ένα αστέρι πέφτει, πέφτει [Α. Καλδάρας-Γ. Σαμολαδάς]
TTITLE14=Τα μάζεψα τα πράγματα [Θ. Πολυκανδριώτης-Γ. Πάριος]
TTITLE15=Τα φιλιά σου είναι φωτιά [Moh. Abdel Wahab-ελλ. στ. Λ. Τσώλης]
TTITLE16=Νανούρισμα (Αγόρι μου)[Μ. Λοΐζος-Λ. Παπαδόπουλος]
TTITLE17=Κεφαλοδέσι [Γ. Γλέζος-F. G. Lorca, απ. ελλ. Λ. Παπαδόπουλος]
EXTD=
EXTT0=
EXTT1=
EXTT2=
EXTT3=
EXTT4=
EXTT5=
EXTT6=
EXTT7=
EXTT8=
EXTT9=
EXTT10=
EXTT11=
EXTT12=
EXTT13=
EXTT14=
EXTT15=
EXTT16=
EXTT17=
PLAYORDER=
